<?xml version="1.0" encoding="utf-8"?>
<!-- Generator: Adobe Illustrator 16.0.0, SVG Export Plug-In . SVG Version: 6.00 Build 0)  -->
<!DOCTYPE svg PUBLIC "-//W3C//DTD SVG 1.1//EN" "http://www.w3.org/Graphics/SVG/1.1/DTD/svg11.dtd">
<svg version="1.1" id="Capa_1" xmlns="http://www.w3.org/2000/svg" xmlns:xlink="http://www.w3.org/1999/xlink" x="0px" y="0px"
	 width="200px" height="200px" viewBox="0 0 200 200" enable-background="new 0 0 200 200" xml:space="preserve">
<g>
	
		<image overflow="visible" opacity="0.5" width="856" height="851" xlink:href="8C6DEDE5.png"  transform="matrix(0.24 0 0 0.24 -1.7021 -0.896)">
	</image>
	<g>
		<path fill="#FFFFFF" d="M91.623,101.236l-77.652,77.652c-2.158,2.157-2.158,5.652,0,7.81c1.077,1.08,2.492,1.617,3.903,1.617
			c1.415,0,2.826-0.537,3.903-1.617l78.236-78.236l78.235,78.236c1.08,1.08,2.492,1.617,3.904,1.617
			c1.411,0,2.826-0.537,3.903-1.617c2.157-2.157,2.157-5.652,0-7.81l-77.649-77.652l77.701-77.707c2.157-2.157,2.157-5.652,0-7.81
			c-2.157-2.155-5.652-2.155-7.807,0l-78.286,78.291L21.723,15.723c-2.157-2.154-5.649-2.154-7.807,0
			c-2.158,2.158-2.158,5.652,0,7.81L91.623,101.236z"/>
	</g>
</g>
</svg>
