<?xml version="1.0" encoding="utf-8"?>
<!-- Generator: Adobe Illustrator 16.0.0, SVG Export Plug-In . SVG Version: 6.00 Build 0)  -->
<!DOCTYPE svg PUBLIC "-//W3C//DTD SVG 1.1//EN" "http://www.w3.org/Graphics/SVG/1.1/DTD/svg11.dtd">
<svg version="1.1" id="Layer_1" xmlns="http://www.w3.org/2000/svg" xmlns:xlink="http://www.w3.org/1999/xlink" x="0px" y="0px"
	 width="200px" height="200px" viewBox="0 0 200 200" enable-background="new 0 0 200 200" xml:space="preserve">
<g>
	<g>
		<path fill="#008D4D" d="M193.156,54.124L142.203,1.179C141.478,0.426,140.477,0,139.432,0H63.49
			c-8.499,0-15.413,6.912-15.413,15.407v53.824H17.301c-6.358,0-11.532,5.171-11.532,11.528v57.712
			c0,6.356,5.173,11.528,11.532,11.528h30.776v34.62c0,8.48,6.914,15.38,15.413,15.38h115.327c8.499,0,15.413-6.896,15.413-15.371
			V56.791C194.23,55.796,193.846,54.841,193.156,54.124z M140.385,10.383l41.828,43.463h-41.828V10.383z M17.301,142.308
			c-2.117,0-3.839-1.721-3.839-3.836V80.759c0-2.115,1.722-3.836,3.839-3.836h103.86c2.117,0,3.839,1.721,3.839,3.836v57.712
			c0,2.115-1.723,3.836-3.839,3.836H17.301z M186.538,184.629c0,4.234-3.464,7.679-7.721,7.679H63.49
			c-4.257,0-7.721-3.448-7.721-7.688V150h65.392c6.358,0,11.531-5.172,11.531-11.528V80.759c0-6.357-5.173-11.528-11.531-11.528
			H55.769V15.407c0-4.254,3.464-7.715,7.721-7.715h69.202v50c0,2.124,1.722,3.846,3.846,3.846h50V184.629z"/>
	</g>
</g>
<text transform="matrix(1 0 0 1 21.9082 126.1992)" fill="#008D4D" font-family="'Roboto-Bold'" font-size="46.326">DOC</text>
</svg>
