<?xml version="1.0" encoding="utf-8"?>
<!-- Generator: Adobe Illustrator 16.0.0, SVG Export Plug-In . SVG Version: 6.00 Build 0)  -->
<!DOCTYPE svg PUBLIC "-//W3C//DTD SVG 1.1//EN" "http://www.w3.org/Graphics/SVG/1.1/DTD/svg11.dtd">
<svg version="1.1" id="Capa_1" xmlns="http://www.w3.org/2000/svg" xmlns:xlink="http://www.w3.org/1999/xlink" x="0px" y="0px"
	 width="64px" height="64px" viewBox="0 0 64 64" enable-background="new 0 0 64 64" xml:space="preserve">
<g>
	<g>
		<g>
			<path fill="#1D1D1B" d="M37.635,41.439c-0.542,0-1.088,0.258-1.635,0.791v10.998c0.547,0.545,1.093,0.807,1.635,0.807
				c0.941,0,1.424-0.807,1.424-2.434v-7.699C39.059,42.271,38.576,41.439,37.635,41.439z"/>
			<path fill="#1D1D1B" d="M49.602,41.439c-1.094,0-1.643,0.832-1.643,2.502v1.672h3.273v-1.672
				C51.234,42.271,50.688,41.439,49.602,41.439z"/>
			<g>
				<path fill="#1D1D1B" d="M56.396,29.049c-2.056-2.139-4.357-2.148-5.414-2.271c-7.557-0.54-18.89-0.54-18.89-0.54h-0.025
					c0,0-11.333,0-18.896,0.54c-1.054,0.123-3.352,0.133-5.409,2.271c-1.618,1.632-2.147,5.327-2.147,5.327S5.08,38.719,5.08,43.061
					v4.073c0,4.341,0.536,8.687,0.536,8.687s0.529,3.695,2.147,5.32c2.057,2.139,4.753,2.072,5.952,2.295
					c4.324,0.414,18.365,0.539,18.365,0.539s11.347-0.017,18.902-0.563c1.058-0.121,3.359-0.133,5.414-2.271
					c1.619-1.625,2.147-5.32,2.147-5.32s0.536-4.346,0.536-8.687v-4.073c0-4.342-0.536-8.685-0.536-8.685
					S58.016,30.681,56.396,29.049z M16.979,56.755h-3.642V35.953H9.486v-3.406H20.9v3.406h-3.92L16.979,56.755L16.979,56.755z
					 M29.891,56.755h-3.278v-1.969c-1.299,1.489-2.54,2.221-3.742,2.221c-1.054,0-1.781-0.432-2.112-1.346
					c-0.178-0.546-0.286-1.409-0.286-2.683V38.717h3.275v13.28c0,0.765,0,1.164,0.024,1.271c0.083,0.506,0.336,0.769,0.771,0.769
					c0.658,0,1.341-0.507,2.069-1.533V38.717h3.278L29.891,56.755L29.891,56.755z M42.331,51.346c0,1.663-0.11,2.866-0.331,3.631
					c-0.438,1.344-1.313,2.03-2.613,2.03c-1.168,0-2.294-0.647-3.387-1.999v1.747h-3.277V32.547H36v7.905
					c1.057-1.3,2.18-1.956,3.387-1.956c1.299,0,2.174,0.688,2.613,2.036c0.221,0.729,0.331,1.918,0.331,3.628V51.346z M54.51,48.33
					h-6.55v3.199c0,1.671,0.549,2.506,1.673,2.506c0.807,0,1.275-0.439,1.463-1.311c0.029-0.179,0.073-0.908,0.073-2.22h3.341v0.479
					c0,1.051-0.043,1.775-0.07,2.105c-0.108,0.723-0.369,1.378-0.767,1.955c-0.905,1.313-2.25,1.96-3.963,1.96
					c-1.711,0-3.015-0.618-3.96-1.853c-0.695-0.902-1.051-2.326-1.051-4.241v-6.319c0-1.927,0.318-3.333,1.012-4.249
					c0.946-1.233,2.249-1.849,3.922-1.849c1.643,0,2.947,0.613,3.863,1.849c0.686,0.916,1.016,2.322,1.016,4.249v3.738H54.51z"/>
				<path fill="#1D1D1B" d="M23.436,24.434v-9.908l4.412-14.552h-3.71l-2.503,9.605L19.03-0.026h-3.863
					c0.777,2.268,1.581,4.544,2.356,6.816c1.174,3.411,1.91,5.982,2.244,7.735v9.908L23.436,24.434L23.436,24.434z"/>
				<path fill="#1D1D1B" d="M32.047,24.685c1.656,0,2.941-0.624,3.857-1.864c0.693-0.91,1.029-2.346,1.029-4.287v-6.387
					c0-1.945-0.336-3.367-1.029-4.289c-0.916-1.25-2.201-1.87-3.857-1.87c-1.654,0-2.943,0.62-3.854,1.87
					c-0.707,0.922-1.034,2.344-1.034,4.289v6.387c0,1.941,0.327,3.377,1.034,4.287C29.104,24.061,30.393,24.685,32.047,24.685z
					 M30.466,11.486c0-1.686,0.514-2.529,1.581-2.529c1.063,0,1.573,0.844,1.573,2.529v7.669c0,1.687-0.511,2.53-1.573,2.53
					c-1.067,0-1.581-0.844-1.581-2.53V11.486z"/>
				<path fill="#1D1D1B" d="M48.988,24.434V6.203H45.68v13.935c-0.732,1.034-1.427,1.548-2.088,1.548
					c-0.445,0-0.708-0.265-0.777-0.773c-0.041-0.109-0.041-0.51-0.041-1.285V6.203h-3.299v14.418c0,1.289,0.107,2.161,0.293,2.711
					c0.332,0.92,1.067,1.353,2.133,1.353c1.203,0,2.459-0.732,3.781-2.24v1.989H48.988L48.988,24.434z"/>
			</g>
		</g>
	</g>
</g>
</svg>
