<?xml version="1.0" encoding="utf-8"?>
<!-- Generator: Adobe Illustrator 16.0.0, SVG Export Plug-In . SVG Version: 6.00 Build 0)  -->
<!DOCTYPE svg PUBLIC "-//W3C//DTD SVG 1.1//EN" "http://www.w3.org/Graphics/SVG/1.1/DTD/svg11.dtd">
<svg version="1.1" id="Capa_1" xmlns="http://www.w3.org/2000/svg" xmlns:xlink="http://www.w3.org/1999/xlink" x="0px" y="0px"
	 width="200px" height="200px" viewBox="0 0 200 200" enable-background="new 0 0 200 200" xml:space="preserve">
<g>
	<path d="M158.472,128.488c-11.503,0-21.761,5.482-28.322,13.953l-54.942-30.689c1.288-3.695,1.994-7.682,1.994-11.793
		c0-4.153-0.706-8.098-2.035-11.835l54.9-30.648c6.52,8.513,16.818,14.037,28.363,14.037c19.686,0,35.756-16.03,35.756-35.756
		S178.156,0,158.43,0c-19.726,0-35.756,16.03-35.756,35.756c0,4.153,0.707,8.14,2.035,11.835L69.851,78.239
		c-6.52-8.555-16.819-14.037-28.364-14.037c-19.685,0-35.756,16.03-35.756,35.756s16.071,35.756,35.797,35.756
		c11.545,0,21.844-5.523,28.405-14.078l54.9,30.689c-1.329,3.736-2.076,7.766-2.076,11.918c0,19.685,16.029,35.756,35.756,35.756
		c19.726,0,35.756-16.029,35.756-35.756S178.197,128.488,158.472,128.488z M158.472,11.254c13.538,0,24.544,11.005,24.544,24.543
		S172.01,60.34,158.472,60.34s-24.543-11.005-24.543-24.543S144.975,11.254,158.472,11.254z M41.528,124.502
		c-13.538,0-24.543-11.006-24.543-24.543c0-13.538,11.005-24.543,24.543-24.543S66.071,86.42,66.071,99.958
		C66.071,113.496,55.025,124.502,41.528,124.502z M158.472,188.746c-13.538,0-24.543-11.006-24.543-24.543
		c0-13.539,11.005-24.543,24.543-24.543s24.544,11.004,24.544,24.543C183.016,177.74,172.01,188.746,158.472,188.746z"/>
</g>
</svg>
