<?xml version="1.0" encoding="utf-8"?>
<!-- Generator: Adobe Illustrator 16.0.0, SVG Export Plug-In . SVG Version: 6.00 Build 0)  -->
<!DOCTYPE svg PUBLIC "-//W3C//DTD SVG 1.1//EN" "http://www.w3.org/Graphics/SVG/1.1/DTD/svg11.dtd">
<svg version="1.1" id="Capa_1" xmlns="http://www.w3.org/2000/svg" xmlns:xlink="http://www.w3.org/1999/xlink" x="0px" y="0px"
	 width="612px" height="612px" viewBox="0 0 612 612" enable-background="new 0 0 612 612" xml:space="preserve">
<g>
	<g id="Right">
		<g>
			<path d="M334.42,432.32l0.058-0.076c5.125,4.705,11.856,7.631,19.335,7.631c15.835,0,28.688-12.852,28.688-28.688
				c0-8.377-3.634-15.836-9.352-21.076l0.057-0.077L281.52,306l91.687-84.055l-0.058-0.076c5.719-5.221,9.353-12.68,9.353-21.057
				c0-15.837-12.853-28.688-28.688-28.688c-7.478,0-14.209,2.926-19.334,7.611l-0.058-0.076l-114.75,105.188
				c-5.91,5.45-9.295,13.101-9.295,21.151s3.385,15.702,9.295,21.152L334.42,432.32z M306,612c168.988,0,306-137.013,306-306
				C612,137.012,474.988,0,306,0S0,137.012,0,306S137.012,612,306,612z M306,57.375c137.088,0,248.625,111.537,248.625,248.625
				S443.088,554.625,306,554.625S57.375,443.088,57.375,306S168.912,57.375,306,57.375z"/>
		</g>
	</g>
</g>
</svg>
