<?xml version="1.0" encoding="utf-8"?>
<!-- Generator: Adobe Illustrator 16.0.0, SVG Export Plug-In . SVG Version: 6.00 Build 0)  -->
<!DOCTYPE svg PUBLIC "-//W3C//DTD SVG 1.1//EN" "http://www.w3.org/Graphics/SVG/1.1/DTD/svg11.dtd">
<svg version="1.1" id="Capa_1" xmlns="http://www.w3.org/2000/svg" xmlns:xlink="http://www.w3.org/1999/xlink" x="0px" y="0px"
	 width="200px" height="200px" viewBox="0 0 200 200" enable-background="new 0 0 200 200" xml:space="preserve">
<g>
	<g id="calendar_1_">
		<path fill="#010002" d="M183.338,18.75H156.25V6.25c0-3.456-2.794-6.25-6.25-6.25s-6.25,2.794-6.25,6.25v12.5h-37.5V6.25
			c0-3.456-2.8-6.25-6.25-6.25s-6.25,2.794-6.25,6.25v12.5h-37.5V6.25C56.25,2.794,53.45,0,50,0s-6.25,2.794-6.25,6.25v12.5H16.669
			C7.462,18.75,0,26.206,0,35.413v147.918C0,192.537,7.462,200,16.669,200h166.669c9.206,0,16.662-7.463,16.662-16.669V35.413
			C200,26.206,192.544,18.75,183.338,18.75z M187.5,183.331c0,2.3-1.869,4.169-4.162,4.169H16.669c-2.3,0-4.169-1.869-4.169-4.169
			V35.413c0-2.294,1.869-4.163,4.169-4.163H43.75v12.5c0,3.456,2.8,6.25,6.25,6.25s6.25-2.794,6.25-6.25v-12.5h37.5v12.5
			c0,3.456,2.8,6.25,6.25,6.25s6.25-2.794,6.25-6.25v-12.5h37.5v12.5c0,3.456,2.794,6.25,6.25,6.25s6.25-2.794,6.25-6.25v-12.5
			h27.088c2.293,0,4.162,1.869,4.162,4.163V183.331z"/>
		<rect x="43.75" y="75" fill="#010002" width="25" height="18.75"/>
		<rect x="43.75" y="106.25" fill="#010002" width="25" height="18.75"/>
		<rect x="43.75" y="137.5" fill="#010002" width="25" height="18.75"/>
		<rect x="87.5" y="137.5" fill="#010002" width="25" height="18.75"/>
		<rect x="87.5" y="106.25" fill="#010002" width="25" height="18.75"/>
		<rect x="87.5" y="75" fill="#010002" width="25" height="18.75"/>
		<rect x="131.25" y="137.5" fill="#010002" width="25" height="18.75"/>
		<rect x="131.25" y="106.25" fill="#010002" width="25" height="18.75"/>
		<rect x="131.25" y="75" fill="#010002" width="25" height="18.75"/>
	</g>
</g>
</svg>
