<?xml version="1.0" encoding="utf-8"?>
<!-- Generator: Adobe Illustrator 16.0.0, SVG Export Plug-In . SVG Version: 6.00 Build 0)  -->
<!DOCTYPE svg PUBLIC "-//W3C//DTD SVG 1.1//EN" "http://www.w3.org/Graphics/SVG/1.1/DTD/svg11.dtd">
<svg version="1.1" id="Capa_1" xmlns="http://www.w3.org/2000/svg" xmlns:xlink="http://www.w3.org/1999/xlink" x="0px" y="0px"
	 width="512px" height="512px" viewBox="0 0 512 512" enable-background="new 0 0 512 512" xml:space="preserve">
<g>
	<path d="M415.97,129.822L215.298,355.576L94.403,258.864c-5.614-4.505-13.854-3.579-18.345,2.037
		c-4.505,5.64-3.591,13.853,2.038,18.355l130.568,104.456c2.403,1.92,5.288,2.858,8.161,2.858c3.604,0,7.194-1.486,9.767-4.387
		l208.912-235.023c4.791-5.381,4.309-13.645-1.084-18.424C429.014,123.934,420.774,124.416,415.97,129.822z"/>
	<path d="M216.826,392.571c-4.312,0-8.541-1.481-11.907-4.171L74.349,283.942c-8.2-6.56-9.536-18.575-2.978-26.786
		c3.634-4.545,9.063-7.15,14.897-7.15c4.31,0,8.533,1.484,11.891,4.179l116.439,93.148l196.887-221.498
		c3.619-4.071,8.813-6.407,14.252-6.407c4.668,0,9.167,1.712,12.668,4.822c3.802,3.37,6.063,8.028,6.364,13.112
		c0.302,5.088-1.397,9.984-4.784,13.788l-208.909,235.02C227.47,390.236,222.274,392.571,216.826,392.571z M86.268,262.006
		c-2.167,0-4.181,0.964-5.523,2.643c-2.429,3.041-1.937,7.494,1.1,9.923l130.568,104.456c1.263,1.01,2.79,1.544,4.413,1.544
		c2.019,0,3.943-0.863,5.278-2.368L431.02,143.175c1.255-1.409,1.883-3.221,1.771-5.104c-0.111-1.879-0.946-3.599-2.351-4.844
		c-1.308-1.162-2.976-1.798-4.703-1.798c-2.043,0-3.919,0.845-5.283,2.379L215.999,363.819L90.655,263.55
		C89.064,262.272,87.392,262.006,86.268,262.006z"/>
</g>
<g>
	<path d="M508.5,507.561H3.5V4.439h505V507.561z M43.5,467.561h425V44.439h-425V467.561z"/>
</g>
</svg>
