<?xml version="1.0" encoding="utf-8"?>
<!-- Generator: Adobe Illustrator 16.0.0, SVG Export Plug-In . SVG Version: 6.00 Build 0)  -->
<!DOCTYPE svg PUBLIC "-//W3C//DTD SVG 1.1//EN" "http://www.w3.org/Graphics/SVG/1.1/DTD/svg11.dtd">
<svg version="1.1" id="Capa_1" xmlns="http://www.w3.org/2000/svg" xmlns:xlink="http://www.w3.org/1999/xlink" x="0px" y="0px"
	 width="512px" height="512px" viewBox="0 0 512 512" enable-background="new 0 0 512 512" xml:space="preserve">
<g>
	<path fill="#4D9B08" d="M256,507.5c138.673,0,251.5-112.819,251.5-251.5S394.673,4.5,256,4.5S4.5,117.319,4.5,256
		S117.327,507.5,256,507.5z M256,35.454c121.61,0,220.546,98.936,220.546,220.546c0,121.61-98.936,220.546-220.546,220.546
		C134.39,476.546,35.454,377.61,35.454,256C35.454,134.39,134.39,35.454,256,35.454z"/>
	<g>
		<path fill="#4D9B08" d="M376.635,161L225.31,331.24l-91.166-72.93c-4.234-3.397-10.447-2.699-13.834,1.535
			c-3.397,4.254-2.708,10.447,1.536,13.844l98.461,78.77c1.812,1.447,3.988,2.156,6.154,2.156c2.718,0,5.425-1.122,7.365-3.31
			l157.539-177.229c3.613-4.057,3.249-10.289-0.817-13.893C386.473,156.56,380.259,156.924,376.635,161z"/>
		<path fill="#4D9B08" d="M226.461,361.615c-3.809,0-7.546-1.31-10.522-3.687l-98.465-78.773c-7.247-5.8-8.428-16.421-2.633-23.678
			c3.215-4.02,8.014-6.322,13.168-6.322c3.812,0,7.546,1.313,10.516,3.696l85.968,68.772l146.91-165.273
			c3.199-3.599,7.791-5.662,12.598-5.662c4.128,0,8.104,1.514,11.198,4.264c3.358,2.977,5.359,7.096,5.625,11.592
			c0.266,4.498-1.237,8.826-4.231,12.188L239.058,355.956C235.87,359.551,231.276,361.615,226.461,361.615z M128.009,263.155
			c-0.878,0-1.692,0.388-2.232,1.063c-0.979,1.227-0.782,3.025,0.444,4.007l98.46,78.769c0.643,0.514,1.324,0.622,1.781,0.622
			c0.479,0,1.392-0.124,2.128-0.955l157.544-177.234c0.683-0.767,0.74-1.618,0.715-2.057c-0.026-0.438-0.183-1.273-0.943-1.947
			c-0.685-0.608-1.413-0.734-1.904-0.734c-0.478,0-1.39,0.125-2.135,0.963L226.127,340.857l-96.355-77.081
			C129.13,263.262,128.459,263.155,128.009,263.155z"/>
	</g>
</g>
</svg>
