<?xml version="1.0" encoding="utf-8"?>
<!-- Generator: Adobe Illustrator 16.0.0, SVG Export Plug-In . SVG Version: 6.00 Build 0)  -->
<!DOCTYPE svg PUBLIC "-//W3C//DTD SVG 1.1//EN" "http://www.w3.org/Graphics/SVG/1.1/DTD/svg11.dtd">
<svg version="1.1" id="Layer_1" xmlns="http://www.w3.org/2000/svg" xmlns:xlink="http://www.w3.org/1999/xlink" x="0px" y="0px"
	 width="192.833px" height="200px" viewBox="0 0 192.833 200" enable-background="new 0 0 192.833 200" xml:space="preserve">
<g>
	<g>
		<g>
			<path d="M187.853,54.972L137.841,3.005c-0.712-0.74-1.695-1.158-2.721-1.158H60.581c-8.342,0-15.128,6.785-15.128,15.123V69.8
				H15.245c-6.24,0-11.318,5.075-11.318,11.315v56.645c0,6.24,5.077,11.316,11.318,11.316h30.208v33.98
				c0,8.324,6.786,15.096,15.128,15.096h113.196c8.343,0,15.129-6.768,15.129-15.088V57.59
				C188.906,56.613,188.529,55.675,187.853,54.972z M136.056,12.039l41.056,42.66h-41.056V12.039z M15.245,141.527
				c-2.077,0-3.768-1.689-3.768-3.766V81.115c0-2.076,1.69-3.765,3.768-3.765h101.942c2.077,0,3.768,1.689,3.768,3.765v56.645
				c0,2.076-1.69,3.766-3.768,3.766H15.245V141.527z M181.356,183.066c0,4.156-3.4,7.537-7.579,7.537H60.581
				c-4.179,0-7.578-3.385-7.578-7.547v-33.98h64.185c6.24,0,11.317-5.076,11.317-11.314V81.115c0-6.24-5.077-11.315-11.317-11.315
				H53.003V16.97c0-4.176,3.399-7.573,7.578-7.573h67.924v49.077c0,2.084,1.69,3.775,3.775,3.775h49.076V183.066z"/>
			<path d="M173.777,198.643H60.581c-8.612,0-15.619-6.992-15.619-15.586v-33.49H15.245c-6.512,0-11.81-5.295-11.81-11.807V81.115
				c0-6.51,5.298-11.806,11.81-11.806h29.717V16.97c0-8.609,7.007-15.613,15.619-15.613h74.539c1.154,0,2.274,0.477,3.074,1.308
				l50.012,51.967c0.769,0.799,1.191,1.849,1.191,2.958v125.475C189.397,191.654,182.391,198.643,173.777,198.643z M15.245,70.291
				c-5.971,0-10.828,4.856-10.828,10.824v56.645c0,5.969,4.857,10.826,10.828,10.826h30.699v34.471
				c0,8.053,6.565,14.605,14.637,14.605h113.196c8.071,0,14.639-6.549,14.639-14.598V57.59c0-0.854-0.326-1.663-0.917-2.277
				L137.486,3.346c-0.615-0.64-1.478-1.007-2.366-1.007H60.581c-8.071,0-14.637,6.564-14.637,14.632v53.32H15.245z M173.777,191.094
				H60.581c-4.449,0-8.069-3.605-8.069-8.037v-34.471h64.676c5.97,0,10.826-4.855,10.826-10.824V81.115
				c0-5.968-4.856-10.824-10.826-10.824H52.512V16.97c0-4.446,3.62-8.063,8.069-8.063h68.414v49.567
				c0,1.811,1.474,3.284,3.285,3.284h49.567v121.308C181.848,187.494,178.227,191.094,173.777,191.094z M53.494,149.568v33.488
				c0,3.891,3.179,7.057,7.087,7.057h113.196c3.909,0,7.088-3.162,7.088-7.047V62.74H132.28c-2.353,0-4.267-1.914-4.267-4.266V9.888
				H60.581c-3.908,0-7.087,3.177-7.087,7.082v52.339h63.693c6.511,0,11.808,5.296,11.808,11.806v56.647
				c0,6.51-5.297,11.807-11.808,11.807H53.494z M15.241,142.016c-1.134,0-2.201-0.441-3.006-1.246
				c-0.806-0.803-1.249-1.873-1.249-3.008V81.115c0-2.347,1.91-4.256,4.259-4.256h101.942c2.348,0,4.259,1.909,4.259,4.256v56.645
				c0,2.348-1.911,4.256-4.259,4.256H15.245C15.244,142.016,15.242,142.016,15.241,142.016z M15.245,77.84
				c-1.807,0-3.277,1.469-3.277,3.274v56.647c0,1.807,1.471,3.275,3.277,3.275l101.942-0.002c1.807,0,3.277-1.469,3.277-3.275
				V81.115c0-1.805-1.471-3.274-3.277-3.274H15.245z M178.265,55.19h-42.699V10.821L178.265,55.19z M136.547,54.208h39.411
				l-39.411-40.952V54.208z"/>
		</g>
	</g>
</g>
<g enable-background="new    ">
	<path d="M74.288,275.225v12.383h-7.241v-35.144h13.71c2.64,0,4.961,0.483,6.964,1.448c2.004,0.966,3.544,2.338,4.622,4.115
		c1.078,1.779,1.617,3.803,1.617,6.07c0,3.443-1.179,6.16-3.536,8.146c-2.357,1.988-5.62,2.98-9.787,2.98H74.288z M74.288,269.359
		h6.469c1.915,0,3.375-0.449,4.381-1.352c1.006-0.9,1.509-2.188,1.509-3.861c0-1.721-0.507-3.113-1.521-4.176
		s-2.414-1.609-4.2-1.641h-6.638V269.359z"/>
	<path d="M98.933,287.607v-35.144h10.813c3.09,0,5.854,0.696,8.291,2.088s4.341,3.372,5.708,5.938
		c1.368,2.566,2.052,5.482,2.052,8.75v1.617c0,3.266-0.672,6.17-2.015,8.713c-1.344,2.543-3.239,4.514-5.685,5.914
		c-2.446,1.4-5.206,2.107-8.279,2.123H98.933z M106.174,258.33v23.461h3.5c2.832,0,4.996-0.926,6.493-2.775
		c1.496-1.852,2.26-4.498,2.293-7.941v-1.859c0-3.572-0.741-6.279-2.221-8.121c-1.481-1.843-3.646-2.764-6.493-2.764H106.174z"/>
	<path d="M152.204,273.246h-13.903v14.361h-7.241v-35.144h22.882v5.866h-15.641v9.074h13.903V273.246z"/>
</g>
<g enable-background="new    ">
	<path d="M299.183,119.607V84.463h10.813c3.09,0,5.854,0.696,8.292,2.088c2.438,1.392,4.34,3.372,5.708,5.938
		c1.367,2.566,2.052,5.483,2.052,8.75v1.617c0,3.267-0.672,6.171-2.016,8.713c-1.344,2.543-3.238,4.514-5.685,5.914
		s-5.205,2.108-8.278,2.124H299.183z M306.424,90.329v23.461h3.5c2.832,0,4.997-0.925,6.493-2.775s2.261-4.497,2.293-7.941v-1.858
		c0-3.572-0.74-6.279-2.221-8.122c-1.48-1.842-3.645-2.764-6.493-2.764H306.424z"/>
	<path d="M360.178,102.832c0,3.46-0.612,6.493-1.835,9.1c-1.223,2.607-2.973,4.618-5.249,6.034
		c-2.277,1.416-4.889,2.124-7.833,2.124c-2.913,0-5.512-0.699-7.796-2.1c-2.285-1.4-4.056-3.399-5.311-5.998
		s-1.891-5.588-1.907-8.967v-1.738c0-3.459,0.624-6.505,1.871-9.136s3.009-4.65,5.286-6.059c2.276-1.408,4.879-2.112,7.809-2.112
		c2.928,0,5.531,0.704,7.808,2.112c2.277,1.408,4.039,3.428,5.286,6.059s1.871,5.668,1.871,9.111V102.832z M352.84,101.239
		c0-3.685-0.66-6.485-1.979-8.4c-1.319-1.915-3.202-2.873-5.647-2.873c-2.431,0-4.305,0.946-5.624,2.836
		c-1.32,1.891-1.988,4.663-2.004,8.315v1.714c0,3.589,0.66,6.372,1.979,8.352s3.218,2.969,5.696,2.969c2.43,0,4.297-0.953,5.6-2.86
		c1.304-1.906,1.963-4.687,1.979-8.339V101.239z"/>
	<path d="M393.029,107.9c-0.273,3.782-1.67,6.759-4.188,8.932c-2.52,2.172-5.838,3.258-9.957,3.258c-4.506,0-8.05-1.517-10.633-4.55
		s-3.874-7.196-3.874-12.491v-2.147c0-3.38,0.595-6.356,1.786-8.931c1.19-2.574,2.893-4.55,5.104-5.926
		c2.213-1.375,4.784-2.063,7.712-2.063c4.057,0,7.322,1.086,9.801,3.258c2.477,2.172,3.91,5.222,4.297,9.148h-7.242
		c-0.178-2.27-0.809-3.914-1.895-4.937c-1.086-1.021-2.74-1.533-4.961-1.533c-2.414,0-4.219,0.865-5.418,2.595
		c-1.199,1.73-1.814,4.414-1.847,8.05v2.654c0,3.798,0.575,6.574,1.726,8.328s2.965,2.631,5.443,2.631
		c2.236,0,3.906-0.511,5.008-1.533c1.102-1.021,1.734-2.603,1.895-4.743H393.029z"/>
</g>
<text transform="matrix(1 0 0 1 526.0449 55.1074)" font-family="'Roboto-Bold'" font-size="49.4331">DOC</text>
<g enable-background="new    ">
	<path d="M38.096,103.58l6.589-12.117h8.328l-10.234,17.428l10.499,17.717h-8.424l-6.758-12.31l-6.759,12.31h-8.424l10.5-17.717
		L23.179,91.463h8.327L38.096,103.58z"/>
	<path d="M64.163,120.79h15.376v5.817H56.922V91.463h7.241V120.79z"/>
	<path d="M101.915,117.387c0-1.367-0.482-2.417-1.449-3.149c-0.965-0.732-2.703-1.505-5.213-2.317
		c-2.511-0.813-4.498-1.613-5.962-2.401c-3.991-2.156-5.986-5.061-5.986-8.714c0-1.898,0.535-3.593,1.605-5.081
		c1.069-1.488,2.606-2.651,4.609-3.488c2.004-0.836,4.252-1.255,6.747-1.255c2.51,0,4.746,0.455,6.711,1.364
		c1.963,0.909,3.486,2.192,4.572,3.85c1.088,1.657,1.631,3.54,1.631,5.648h-7.242c0-1.608-0.506-2.86-1.521-3.754
		c-1.014-0.893-2.438-1.34-4.272-1.34c-1.771,0-3.146,0.375-4.127,1.123c-0.982,0.748-1.473,1.733-1.473,2.957
		c0,1.143,0.575,2.1,1.726,2.872s2.844,1.496,5.081,2.172c4.119,1.24,7.121,2.776,9.004,4.61c1.883,1.835,2.824,4.12,2.824,6.855
		c0,3.041-1.15,5.427-3.453,7.156c-2.301,1.73-5.398,2.595-9.292,2.595c-2.704,0-5.166-0.494-7.387-1.484
		c-2.22-0.989-3.914-2.345-5.08-4.066c-1.167-1.722-1.75-3.718-1.75-5.986h7.265c0,3.878,2.317,5.817,6.952,5.817
		c1.722,0,3.065-0.351,4.03-1.051C101.433,119.62,101.915,118.643,101.915,117.387z"/>
</g>
<g enable-background="new    ">
	<path d="M306.858,306.29h17.717v5.817h-26.768v-4.248l17.378-25.03h-17.354v-5.866h26.358v4.152L306.858,306.29z"/>
	<path d="M336.837,312.107h-7.241v-35.145h7.241V312.107z"/>
	<path d="M350.788,299.725v12.383h-7.241v-35.145h13.71c2.64,0,4.961,0.483,6.964,1.448c2.004,0.966,3.544,2.338,4.622,4.116
		s1.617,3.802,1.617,6.07c0,3.443-1.179,6.159-3.536,8.146s-5.62,2.98-9.787,2.98H350.788z M350.788,293.859h6.469
		c1.915,0,3.375-0.45,4.381-1.352c1.006-0.9,1.509-2.188,1.509-3.861c0-1.722-0.507-3.114-1.521-4.177
		c-1.014-1.062-2.414-1.608-4.2-1.641h-6.638V293.859z"/>
</g>
</svg>
