<?xml version="1.0" encoding="utf-8"?>
<!-- Generator: Adobe Illustrator 16.0.0, SVG Export Plug-In . SVG Version: 6.00 Build 0)  -->
<!DOCTYPE svg PUBLIC "-//W3C//DTD SVG 1.1//EN" "http://www.w3.org/Graphics/SVG/1.1/DTD/svg11.dtd">
<svg version="1.1" id="Layer_1" xmlns="http://www.w3.org/2000/svg" xmlns:xlink="http://www.w3.org/1999/xlink" x="0px" y="0px"
	 width="200px" height="200px" viewBox="0 0 200 200" enable-background="new 0 0 200 200" xml:space="preserve">
<g id="XMLID_504_">
	<path id="XMLID_505_" d="M25.68,0.008h148.652C188.455,0.008,200,11.557,200,25.68v148.652c0,14.119-11.545,25.66-25.668,25.66
		H25.68C11.557,199.992,0,188.45,0,174.332V25.68C0,11.557,11.557,0.008,25.68,0.008z M145.697,22.219
		c-4.959,0-9.004,4.061-9.004,9.017v21.543c0,4.958,4.045,9.009,9.004,9.009h22.602c4.951,0,9.004-4.051,9.004-9.009V31.236
		c0-4.956-4.053-9.017-9.004-9.017H145.697z M177.389,84.579h-17.597c1.669,5.45,2.573,11.197,2.573,17.173
		c0,33.254-27.844,60.227-62.177,60.227c-34.325,0-62.169-26.973-62.169-60.227c0-5.976,0.914-11.723,2.574-17.173H22.233v84.488
		c0,4.375,3.573,7.936,7.944,7.936h139.272c4.375,0,7.939-3.561,7.939-7.936V84.579z M100.188,60.652
		c-22.173,0-40.16,17.419-40.16,38.925c0,21.485,17.986,38.917,40.16,38.917c22.186,0,40.173-17.432,40.173-38.917
		C140.361,78.07,122.374,60.652,100.188,60.652z"/>
</g>
</svg>
