<?xml version="1.0" encoding="utf-8"?>
<!-- Generator: Adobe Illustrator 16.0.0, SVG Export Plug-In . SVG Version: 6.00 Build 0)  -->
<!DOCTYPE svg PUBLIC "-//W3C//DTD SVG 1.1//EN" "http://www.w3.org/Graphics/SVG/1.1/DTD/svg11.dtd">
<svg version="1.1" id="Capa_1" xmlns="http://www.w3.org/2000/svg" xmlns:xlink="http://www.w3.org/1999/xlink" x="0px" y="0px"
	 width="488.446px" height="488.446px" viewBox="0 0 488.446 488.446" enable-background="new 0 0 488.446 488.446"
	 xml:space="preserve">
<g>
	<g>
		<g>
			<path d="M153.029,90.223h182.403c5.428,0,9.873-4.43,9.873-9.869V0H143.137v80.354C143.137,85.793,147.571,90.223,153.029,90.223
				z"/>
			<path d="M480.817,122.864L377.879,19.494v60.859c0,23.404-19.043,42.447-42.447,42.447H153.029
				c-23.409,0-42.447-19.043-42.447-42.447V0H44.823C20.068,0,0.002,20.07,0.002,44.808v398.831
				c0,24.736,20.066,44.809,44.821,44.809h398.812c24.74,0,44.809-20.068,44.809-44.809V141.325
				C488.444,134.392,485.698,127.758,480.817,122.864z M412.461,385.667c0,14.434-11.703,26.153-26.168,26.153H102.137
				c-14.451,0-26.153-11.722-26.153-26.153V249.303c0-14.43,11.702-26.148,26.153-26.148h284.156
				c14.465,0,26.168,11.72,26.168,26.148V385.667z"/>
			<path d="M356.497,265.131H131.949c-9.008,0-16.294,7.272-16.294,16.279c0,9.008,7.286,16.28,16.294,16.28h224.549
				c8.988,0,16.277-7.272,16.277-16.28C372.776,272.404,365.487,265.131,356.497,265.131z"/>
			<path d="M323.936,330.264H164.508c-8.994,0-16.28,7.273-16.28,16.279c0,8.99,7.286,16.281,16.28,16.281h159.426
				c8.994,0,16.281-7.291,16.281-16.281C340.217,337.538,332.93,330.264,323.936,330.264z"/>
		</g>
	</g>
</g>
</svg>
