<?xml version="1.0" encoding="utf-8"?>
<!-- Generator: Adobe Illustrator 16.0.0, SVG Export Plug-In . SVG Version: 6.00 Build 0)  -->
<!DOCTYPE svg PUBLIC "-//W3C//DTD SVG 1.1//EN" "http://www.w3.org/Graphics/SVG/1.1/DTD/svg11.dtd">
<svg version="1.1" id="Capa_1" xmlns="http://www.w3.org/2000/svg" xmlns:xlink="http://www.w3.org/1999/xlink" x="0px" y="0px"
	 width="200px" height="200px" viewBox="0 0 200 200" enable-background="new 0 0 200 200" xml:space="preserve">
<g>
	<g>
		<path fill="#666666" d="M194.27,97.687c-3.184,0-5.729,2.547-5.729,5.73v52.122c0,14.177-11.545,25.68-25.679,25.68H37.139
			c-14.176,0-25.679-11.545-25.679-25.68v-52.971c0-3.184-2.546-5.73-5.73-5.73c-3.183,0-5.73,2.547-5.73,5.73v52.971
			c0,20.501,16.681,37.139,37.139,37.139h125.722c20.5,0,37.139-16.68,37.139-37.139v-52.122
			C200,100.276,197.453,97.687,194.27,97.687z"/>
		<path fill="#666666" d="M95.968,147.178c1.104,1.104,2.589,1.697,4.032,1.697s2.929-0.552,4.032-1.697l36.417-36.418
			c2.25-2.25,2.25-5.857,0-8.107c-2.249-2.249-5.856-2.249-8.106,0l-26.612,26.656V13.052c0-3.184-2.547-5.73-5.73-5.73
			s-5.73,2.546-5.73,5.73v116.257l-26.655-26.656c-2.25-2.249-5.857-2.249-8.107,0c-2.25,2.25-2.25,5.857,0,8.107L95.968,147.178z"
			/>
	</g>
</g>
</svg>
