<?xml version="1.0" encoding="utf-8"?>
<!-- Generator: Adobe Illustrator 16.0.0, SVG Export Plug-In . SVG Version: 6.00 Build 0)  -->
<!DOCTYPE svg PUBLIC "-//W3C//DTD SVG 1.1//EN" "http://www.w3.org/Graphics/SVG/1.1/DTD/svg11.dtd">
<svg version="1.1" id="Layer_1" xmlns="http://www.w3.org/2000/svg" xmlns:xlink="http://www.w3.org/1999/xlink" x="0px" y="0px"
	 width="28.063px" height="40.938px" viewBox="0 0 28.063 40.938" enable-background="new 0 0 28.063 40.938" xml:space="preserve">
<g>
	<g>
		<g>
			<path d="M14.031,0.469c-7.352,0-13.333,5.98-13.333,13.333c0,2.206,0.553,4.395,1.602,6.336l11.004,19.9
				c0.146,0.267,0.425,0.431,0.729,0.431c0.305,0,0.583-0.164,0.73-0.431l11.006-19.907c1.045-1.935,1.598-4.123,1.598-6.329
				C27.364,6.45,21.383,0.469,14.031,0.469z M14.031,20.469c-3.676,0-6.666-2.991-6.666-6.667c0-3.677,2.99-6.667,6.666-6.667
				c3.676,0,6.667,2.99,6.667,6.667S17.707,20.469,14.031,20.469z"/>
			<path fill="#F2F2F2" d="M14.032,40.969c-0.487,0-0.935-0.265-1.167-0.691L1.862,20.38c-1.089-2.017-1.664-4.29-1.664-6.578
				c0-7.627,6.206-13.833,13.833-13.833c7.626,0,13.833,6.206,13.834,13.833c0,2.288-0.573,4.559-1.658,6.567L15.199,40.281
				C14.966,40.704,14.519,40.969,14.032,40.969z M14.031,0.969c-7.076,0-12.833,5.757-12.833,12.833
				c0,2.123,0.533,4.231,1.542,6.098l11.001,19.896c0.117,0.215,0.467,0.214,0.583,0.001L25.33,19.889
				c1.004-1.858,1.535-3.965,1.535-6.087C26.864,6.726,21.106,0.969,14.031,0.969z M14.031,20.969c-3.951,0-7.166-3.215-7.166-7.167
				s3.215-7.167,7.166-7.167c3.952,0,7.167,3.215,7.167,7.167S17.983,20.969,14.031,20.969z M14.031,7.635
				c-3.4,0-6.166,2.767-6.166,6.167s2.766,6.167,6.166,6.167s6.167-2.767,6.167-6.167S17.431,7.635,14.031,7.635z"/>
		</g>
	</g>
</g>
</svg>
