<?xml version="1.0" encoding="utf-8"?>
<!-- Generator: Adobe Illustrator 16.0.0, SVG Export Plug-In . SVG Version: 6.00 Build 0)  -->
<!DOCTYPE svg PUBLIC "-//W3C//DTD SVG 1.1//EN" "http://www.w3.org/Graphics/SVG/1.1/DTD/svg11.dtd">
<svg version="1.1" id="Capa_1" xmlns="http://www.w3.org/2000/svg" xmlns:xlink="http://www.w3.org/1999/xlink" x="0px" y="0px"
	 width="201.583px" height="51.375px" viewBox="0 0 201.583 51.375" enable-background="new 0 0 201.583 51.375"
	 xml:space="preserve">
<g>
	<rect x="1.792" y="1.688" fill="#E5E5E5" width="197.75" height="48.25"/>
</g>
<g>
	<path d="M86.961,21.125h1.043v7.208h3.454v0.876h-4.498V21.125z"/>
	<path d="M99.065,25.083c0,2.782-1.691,4.258-3.754,4.258c-2.135,0-3.634-1.655-3.634-4.102c0-2.566,1.595-4.246,3.754-4.246
		C97.638,20.994,99.065,22.685,99.065,25.083z M92.792,25.215c0,1.728,0.935,3.274,2.578,3.274c1.655,0,2.591-1.523,2.591-3.358
		c0-1.606-0.839-3.286-2.579-3.286C93.656,21.845,92.792,23.44,92.792,25.215z"/>
	<path d="M106.577,28.85c-0.467,0.168-1.391,0.443-2.482,0.443c-1.223,0-2.23-0.312-3.022-1.067
		c-0.696-0.672-1.127-1.751-1.127-3.011c0.012-2.41,1.667-4.173,4.378-4.173c0.936,0,1.667,0.204,2.015,0.372l-0.252,0.852
		c-0.432-0.192-0.972-0.348-1.787-0.348c-1.967,0-3.25,1.224-3.25,3.25c0,2.051,1.235,3.263,3.118,3.263
		c0.684,0,1.151-0.097,1.392-0.216v-2.411h-1.644v-0.84h2.662V28.85z"/>
	<path d="M115.084,25.083c0,2.782-1.69,4.258-3.754,4.258c-2.135,0-3.634-1.655-3.634-4.102c0-2.566,1.596-4.246,3.754-4.246
		C113.658,20.994,115.084,22.685,115.084,25.083z M108.813,25.215c0,1.728,0.935,3.274,2.578,3.274c1.655,0,2.59-1.523,2.59-3.358
		c0-1.606-0.839-3.286-2.578-3.286C109.676,21.845,108.813,23.44,108.813,25.215z"/>
</g>
</svg>
