<?xml version="1.0" encoding="utf-8"?>
<!-- Generator: Adobe Illustrator 16.0.0, SVG Export Plug-In . SVG Version: 6.00 Build 0)  -->
<!DOCTYPE svg PUBLIC "-//W3C//DTD SVG 1.1//EN" "http://www.w3.org/Graphics/SVG/1.1/DTD/svg11.dtd">
<svg version="1.1" id="Capa_1" xmlns="http://www.w3.org/2000/svg" xmlns:xlink="http://www.w3.org/1999/xlink" x="0px" y="0px"
	 width="200px" height="200px" viewBox="0 0 200 200" enable-background="new 0 0 200 200" xml:space="preserve">
<path d="M100,0C44.861,0,0,44.858,0,100c0,55.143,44.861,100,100,100s100-44.857,100-100C200,44.858,155.139,0,100,0z M100,192.308
	c-50.896,0-92.308-41.411-92.308-92.308C7.692,49.104,49.104,7.692,100,7.692c50.896,0,92.308,41.412,92.308,92.308
	C192.308,150.896,150.896,192.308,100,192.308z"/>
<path d="M96.154,96.154H51.923c-2.123,0-3.846,1.719-3.846,3.846s1.723,3.846,3.846,3.846h44.231h0.487c1.063,0-0.639,0,1.484,0
	s2.123,0,3.297,0h2.424h44.231c2.123,0,3.846-1.719,3.846-3.846s-1.723-3.846-3.846-3.846h-44.231L97.5,96.167"/>
</svg>
